<svg id="Layer_1" data-name="Layer 1" xmlns="http://www.w3.org/2000/svg" viewBox="0 0 93.45 89.36"><defs><style>.cls-1{fill:#231f20;}</style></defs><path class="cls-1" d="M30.33,83.43A24.68,24.68,0,1,1,55,58.76,24.7,24.7,0,0,1,30.33,83.43Zm0-46.85A22.18,22.18,0,1,0,52.5,58.76,22.21,22.21,0,0,0,30.33,36.58Z"/><path class="cls-1" d="M62.48,83.43A24.68,24.68,0,1,1,87.15,58.76,24.7,24.7,0,0,1,62.48,83.43Zm0-46.85A22.18,22.18,0,1,0,84.65,58.76,22.21,22.21,0,0,0,62.48,36.58Z"/><path class="cls-1" d="M47.41,29.32a1.52,1.52,0,0,1-.81-.25,39.74,39.74,0,0,1-7.92-6.37,13.71,13.71,0,0,1-3.08-4.95,7.76,7.76,0,0,1,.94-7.08,6.42,6.42,0,0,1,5-2.81A7.84,7.84,0,0,1,46,8.68a8.67,8.67,0,0,1,1.46,1.09l.12-.12A6.45,6.45,0,0,1,51.6,7.87a7.59,7.59,0,0,1,4.28.69A7,7,0,0,1,59.6,14a9,9,0,0,1-1.49,6.13A20.92,20.92,0,0,1,53.82,25,47.42,47.42,0,0,1,48.31,29,1.63,1.63,0,0,1,47.41,29.32Zm-5-19-.65,0a3.91,3.91,0,0,0-3.13,1.75A5.28,5.28,0,0,0,38,17a10.82,10.82,0,0,0,2.53,4,36.24,36.24,0,0,0,6.9,5.61,45,45,0,0,0,4.76-3.54A18.71,18.71,0,0,0,56,18.84a6.55,6.55,0,0,0,1.14-4.48,4.47,4.47,0,0,0-2.42-3.59,5.2,5.2,0,0,0-2.91-.41,4,4,0,0,0-2.53,1.11c-.2.19-.38.39-.57.61l-1.24,1.33L46.3,12.16a7,7,0,0,0-1.56-1.3A4.67,4.67,0,0,0,42.37,10.33Z"/></svg>