<svg id="Layer_1" data-name="Layer 1" xmlns="http://www.w3.org/2000/svg" viewBox="0 0 88.37 89.36"><path d="M42.59,83c0-.21,0-.36,0-.52q0-14.58,0-29.17a1.26,1.26,0,0,0-.25-.73c-1.57-2.07-3.17-4.12-4.77-6.17q-3.45-4.47-6.91-8.93c-1.87-2.42-3.76-4.82-5.63-7.24-1.14-1.46-2.24-2.95-3.37-4.41L16.34,19c-.37-.47-.72-1-1.14-1.51H25.48c-.1-.75-.13-1.45-.28-2.11a9.6,9.6,0,0,0-6.63-7.3,9.43,9.43,0,0,0-7.69.7,9.4,9.4,0,0,0-4.61,5.34,9.41,9.41,0,0,0,2,9.94c3,3.26,6.69,4,10.87,2.62a1.42,1.42,0,0,1,1.61.13A1.25,1.25,0,0,1,20.24,29a11.65,11.65,0,0,1-1.41.47,12.25,12.25,0,0,1-13.49-5A11.91,11.91,0,0,1,4.52,12a11.73,11.73,0,0,1,8.22-6.5,11.89,11.89,0,0,1,9.13,1.4,12,12,0,0,1,5.85,8.46c.13.69.17,1.39.26,2.14a3.46,3.46,0,0,0,.37,0H44.49c3.61,0,7.22,0,10.82,0a.75.75,0,0,0,.72-.4c1.52-2.25,3.07-4.47,4.61-6.71,1-1.37,1.89-2.76,2.83-4.15.43-.63.84-1.27,1.29-1.89a1.27,1.27,0,0,1,1.75-.27,1.17,1.17,0,0,1,.33,1.65c-1,1.55-2.11,3.08-3.16,4.62L59,17.14c-.06.09-.1.18-.2.36H72.56c-.24.33-.42.59-.61.84l-5.79,7.44-7.6,9.78-6,7.68-6.74,8.7a3.45,3.45,0,0,1-.26.28,2.23,2.23,0,0,0-.52,1.57c0,6.37,0,12.74,0,19.11,0,3.21,0,6.42,0,9.63,0,.14,0,.28,0,.48H57.31a1.24,1.24,0,0,1,1.18,1.89c-.18.28-.6.41-.92.59-.08.05-.22,0-.33,0l-24.19,0-2.63,0a1.23,1.23,0,0,1-1.35-1.23A1.28,1.28,0,0,1,30.42,83H42.59ZM20.31,20l.19.29c1.4,1.8,2.81,3.59,4.2,5.39s2.78,3.62,4.19,5.41a.9.9,0,0,0,.62.32q8.18,0,16.34,0a.87.87,0,0,0,.56-.32c.53-.71,1-1.46,1.54-2.19l5.29-7.74c.26-.37.5-.75.77-1.17ZM56.65,34H31.11L43.88,50.43ZM67.44,20A1.44,1.44,0,0,0,67.2,20c-3.28,0-6.55,0-9.82,0a.65.65,0,0,0-.45.25c-.73,1-1.44,2-2.14,3-1.51,2.21-3,4.43-4.5,6.65l-1,1.54h.58c2.72,0,5.45,0,8.18,0A1.11,1.11,0,0,0,59,31q3.93-5.1,7.88-10.17C67.06,20.56,67.24,20.32,67.44,20Z"/></svg>