<svg id="Layer_1" data-name="Layer 1" xmlns="http://www.w3.org/2000/svg" viewBox="0 0 96.54 89.36"><defs><style>.cls-1{fill:#231f20;}</style></defs><path class="cls-1" d="M49.58,22.48A23.23,23.23,0,1,1,26.35,45.16,23.09,23.09,0,0,1,49.58,22.48Zm.11,2.66A20.57,20.57,0,1,0,70.13,45.62,20.57,20.57,0,0,0,49.69,25.14Z"/><path class="cls-1" d="M10.32,56.69c0-5.12,0-10.24,0-15.36a5.4,5.4,0,0,1,.74-3.15c.3-.43.19-.57-.25-.78-4-1.85-5.83-4.93-5.7-9.35.12-4.05,0-8.12,0-12.18a8.61,8.61,0,0,1,0-.88,1.22,1.22,0,0,1,1.35-1.26A1.2,1.2,0,0,1,7.71,15c0,.84,0,1.69,0,2.53,0,3.66.13,7.32,0,11-.18,4.08,2.9,6.62,6.2,7.14a8.4,8.4,0,0,0,5.91-1.11A6.19,6.19,0,0,0,23,29c0-4.35,0-8.71,0-13.06a8.19,8.19,0,0,1,0-1,1.28,1.28,0,0,1,2.56.12c0,5,.13,10-.07,14.92-.14,3.44-2.25,5.77-5.27,7.26-.64.32-1.08.46-.42,1.26A3.89,3.89,0,0,1,20.39,41q0,15.69,0,31.39a5,5,0,1,1-10.06,0C10.31,67.16,10.32,61.93,10.32,56.69Zm7.48.1q0-7.78,0-15.58a2.5,2.5,0,0,0-.89-2.28,2.38,2.38,0,0,0-2.76-.23,2.77,2.77,0,0,0-1.31,2.6q0,13.44,0,26.87v4.28A2.52,2.52,0,0,0,14,74.7a2.26,2.26,0,0,0,2.48.12,2.49,2.49,0,0,0,1.33-2.35C17.79,67.24,17.8,62,17.8,56.79Z"/><path class="cls-1" d="M80.88,50.31c-2.36-.65-3.3-1.77-3.29-4.1A67.52,67.52,0,0,1,79.3,32.7a160.73,160.73,0,0,1,4.29-16.44,3.45,3.45,0,0,1,6.77,1.14c0,7.28,0,14.56,0,21.84,0,2.42,0,4.83,0,7.24A3.5,3.5,0,0,1,89.54,49c-.34.36-.25.57,0,.92a5,5,0,0,1,.84,2.88c0,6.62,0,13.24,0,19.86a5,5,0,1,1-10,0c0-6.66,0-13.32,0-20A7.36,7.36,0,0,1,80.88,50.31ZM87.82,32V17.83c0-.62.09-1.36-.73-1.49s-1,.61-1.21,1.25c-1.09,3.87-2.36,7.69-3.2,11.63C81.5,34.76,80.29,40.28,80.19,46c0,1.39.32,1.72,1.74,1.73s2.85,0,4.27,0,1.62-.26,1.62-1.58ZM82.87,62.59c0,3.26,0,6.51,0,9.76a2.49,2.49,0,1,0,4.94,0q0-9.64,0-19.3a2.64,2.64,0,0,0-.51-1.75,2.3,2.3,0,0,0-2.61-.91,2.43,2.43,0,0,0-1.82,2.55C82.85,56.16,82.87,59.38,82.87,62.59Z"/><path class="cls-1" d="M46.63,80C39,79.78,30.4,75.88,23.58,68.19c-.32-.35-.69-.7-.64-1.23a1.29,1.29,0,0,1,.89-1.26,1.45,1.45,0,0,1,1.64.59,29.69,29.69,0,0,0,7.73,6.57,31.75,31.75,0,0,0,41.91-8.38c.7-.93,1.57-1.15,2.23-.59s.55,1.29-.14,2.22A33.92,33.92,0,0,1,64.41,76.69C59.62,79,54.57,80.13,46.63,80Z"/><path class="cls-1" d="M49,11.33c11.78.09,21.26,4.79,28.4,14.19l.19.27c.66,1,.65,1.73,0,2.23s-1.48.24-2.12-.66a29.87,29.87,0,0,0-8.67-8.28c-9.92-6.08-20.25-6.79-30.89-2a24.56,24.56,0,0,0-5.42,3.28,1.33,1.33,0,0,1-2.05-.1,1.31,1.31,0,0,1,.41-2A33.06,33.06,0,0,1,39,13,33.48,33.48,0,0,1,49,11.33Z"/><path class="cls-1" d="M17,20.77c0-1.75,0-3.5,0-5.26,0-1.21.42-1.78,1.27-1.8s1.32.58,1.32,1.75c0,3.51,0,7,0,10.52,0,1.14-.5,1.81-1.31,1.78S17,27.07,17,25.92C17,24.21,17,22.49,17,20.77Z"/><path class="cls-1" d="M11.1,20.72V15.34c0-.85.24-1.57,1.23-1.61s1.08.66,1.17,1.48c.4,3.71.06,7.42.17,11.13a1.21,1.21,0,0,1-1.23,1.39c-.87,0-1.32-.56-1.33-1.42,0-1.86,0-3.73,0-5.59Z"/></svg>