<svg xmlns="http://www.w3.org/2000/svg" viewBox="0 0 198.05 297.89"><defs><style>.cls-1{opacity:0.6;}.cls-2{fill:#d9e9ed;}</style></defs><g id="Layer_2" data-name="Layer 2"><g id="Layer_1-2" data-name="Layer 1"><g class="cls-1"><path class="cls-2" d="M134.8,0c4.64,3.86,9.07,7.89,12.2,13.17.44.75,1.88,1,2.91,1.29,4.19,1.19,8.52,2,12.58,3.52,9.3,3.53,12.51,8.66,12.82,18.59a66.29,66.29,0,0,0,1.58,12.48c1.12,4.94,2.36,6.38,7.91,12.18l-5-.77a63.93,63.93,0,0,1,10,21.09l-6.45-3.14c1.62,4.07,3.69,8,4.79,12.25,3.08,11.84.15,22.66-6.54,32.61a4.94,4.94,0,0,0-.76,5c1.72,5.07.86,10.24-1.46,14.93A145,145,0,0,1,171.76,156c-2.65,4.24-5.12,8.49-5.91,13.56-1.42,9.11,4.15,16.84,13.29,18.33a22.58,22.58,0,0,0,15.76-3.36l1.53-.92c3.64,8.45,1.72,24-11.54,28.62-15.47,5.42-29.68,2.38-42.29-8a5.87,5.87,0,0,0-4-1.49c-10.1-.06-19.87-1.74-28.37-7.58-3.74-2.57-6.93-5.93-10.43-9-1.24,1.54-2.7,3.63-4.44,5.45-8,8.38-18.17,11.7-29.41,12.55a7.06,7.06,0,0,0-3.64,1.27,49.21,49.21,0,0,1-30.7,10.35C18.33,215.85,7,209,2.23,198.27c-2.71-6.05-3-15.43-.65-21.2,2.07,2,4,4,6.2,5.85a32.39,32.39,0,0,0,15.06,7.34c9.5,1.75,16.26-2.46,17.65-12.07,1-6.73.86-13.66.74-20.49-.16-8.93-.28-17.79,3-26.29,2.66-6.87,7.21-12.3,12.78-17,.44-.38.87-.78,1.74-1.55-1.61.33-2.69.47-3.72.79a5.09,5.09,0,0,1-6-2,60.55,60.55,0,0,1-6-9.74c-1.66-3.65-1-5.1,2.15-7.62l1.46-1.18a12.83,12.83,0,0,0-2-.12,17.26,17.26,0,0,1-10.12-1.57,19.06,19.06,0,0,0-11.6-1.88c-3.25.51-4.21-.84-3.39-4.08,1.08-4.25,5.76-6.75,10.88-5.64,2.2.48,4.29,1.42,6.47,1.95,1.69.41,3.45.52,5.18.76l.47-.74c-1.12-1.81-2.16-3.67-3.43-5.37-.3-.41-1.35-.4-2-.35-3.42.21-4.77-.32-6-3.5-1.27-3.36-2-6.92-3.07-10.36-.54-1.77-1.26-3.48-1.92-5.21a9.61,9.61,0,0,0-.57-1c-3.81-6.71-3.05-9.64,3.62-13.36,7.69-4.3,15.45-8.48,23.12-12.82a8.49,8.49,0,0,0,2.62-2.83c1.57-2.47,2.79-5.17,4.5-7.54,2.77-3.85,7.23-4,11.39-4.52,5.08-.62,10.2-.92,15.3-1.47a4,4,0,0,0,2.21-1.21c3.57-3.89,7.57-5.08,13-4,4.85,1,10,.3,15,.34A1.53,1.53,0,0,0,117,8.5q8.46-4.24,16.91-8.5ZM99,116.83a54.88,54.88,0,0,0-6,20.51c-1.23,16.07,2.81,30.53,13.62,42.67,8.15,9.17,18.61,13.67,31,13.79-17.88-11-28.38-26.91-31.7-47.63l-.78.19v13.72h-.7c-5.08-11.93-5.58-23.95-.37-36,3.43-8,13.7-19.6,18-20.51-9.71,12.58-9.26,28.65-6,34.61,1-6.67,4-12.37,7.73-17.71,3-4.27,6.13-8.41,9.28-12.55,5.48-7.18,10.77-14.49,14.66-23.18,1.3,4.75.18,8.87-.86,13,7.5-7.58,10.24-16.8,9.5-27.2-.72-10.17-4.8-19-11-27.08a56.67,56.67,0,0,1,8.48,6.48c7.89,7.57,12.75,16.56,12.21,27.85-.33,6.8-2.93,12.87-6.36,18.61-5.85,9.8-13.89,17.6-22.71,24.66-.56.44-1.1.89-1.65,1.34,11.51-2.41,22.06-6.72,30.17-15.35,10.55-11.23,13.24-24.35,7.25-38.63-6.95-16.57-17.27-29.82-36.87-33.61,2-1.39,3.67-2.64,5.42-3.84,5.07-3.51,6.58-8.09,3.71-13.54-1.69-3.2-4.39-5.86-6.59-8.8s-5.14-3.52-8.69-2.29C125,8,120.25,9.44,117,13.64c-2.94,3.85-2.93,7.73.4,11.26,2.11,2.22,4.71,4,7,6a7.55,7.55,0,0,1,1.16,1.91c-.81,0-1.79.18-2.4-.19-1.66-1-3.17-2.3-4.73-3.49-9.18-7-19.11-11.78-31.07-10.69-7,.65-14.11,1.16-21.14,2a6.51,6.51,0,0,0-5.86,5.73c7.92-2.73,13.31-2.49,14.54.8a16.44,16.44,0,0,0-4,.32c-.88.28-2.25,1.62-2.11,1.95a7.26,7.26,0,0,0,2.32,2.66c.32.25,1.14-.18,1.74-.19a13.68,13.68,0,0,1,1.79.16,6.41,6.41,0,0,1-.62,2,23.47,23.47,0,0,1-2.34,2.43L76,35.76l.33.74a25.87,25.87,0,0,1-3.62,2,38.57,38.57,0,0,1-5.22,1.39c-1.87.41-3.77.68-6,1.08l.76-2.32c-3.95.06-3.8-3.34-5-5.7-3.25,1.56-6.39,3-9.48,4.56q-8.88,4.45-17.71,9c-2.92,1.51-3.15,3.38-.8,5.88,1.55-.71,3.09-1.51,4.71-2.11.66-.24,2-.32,2.14,0a3.06,3.06,0,0,1,.26,2.48c-.6,1.28-1.79,2.27-2.38,3.55-.69,1.52-1.49,3.25-1.37,4.82a29.57,29.57,0,0,0,1.8,6.5c.61,1.86,1.65,1.78,3.31,1a51.38,51.38,0,0,1,9.5-3.88c3.68-1,7.33-1.44,10.46-4.09,2.68-2.27,4.82-1.86,7.47.57,5.39,5,10.72,10,16,15a8.5,8.5,0,0,1,1.53,1.95c.93,1.55.4,2.56-1.43,2.81a13.6,13.6,0,0,1-1.81,0A20.42,20.42,0,0,0,65.4,86.24c-1.74,1.57-3.53,3.08-5.15,4.76a15.58,15.58,0,0,1-8.18,4.51c-.88.19-1.76.4-2.62.67-1.74.54-2.67,1.87-1.84,3.46a53.21,53.21,0,0,0,5.31,8.51,4.67,4.67,0,0,0,4,1.13c6.78-1.86,12.88-5.26,16.84-11.1,4.43-6.52,10.51-9.86,17.81-11.75,5.38-1.39,10.77-.86,16.18-.52a9,9,0,0,0,9.65-8.07c-4,1.79-8,2.84-13.09,1.81a21.23,21.23,0,0,1,2-1.3c4.73-2.15,7.4-5.64,7.72-11,.11-2,1-3.87,1.52-5.81l.77.07c.58,1.53,1.16,3.06,1.83,4.81,2-4.68,1.2-8.77-1.54-12.82,4.17.1,6.79,2.08,8,5.52,2.74,7.51,2.26,18.31-5.52,24.68a72.34,72.34,0,0,1-13.56,8.42c-10,5-20.4,9.35-30.38,14.47C63.36,112.78,54.94,122,51.59,135.23c-2.38,9.43-2.68,19.05-2.86,28.71a78.32,78.32,0,0,1-1.39,14.35C44.51,192,35.71,198.1,21.88,196c-4.21-.64-8.24-2.5-12.14-3.73.71,4.9,5.65,10.28,10.22,12.36,8.45,3.85,17.08,3.89,25.72.8,2.32-.83,4.39-2.36,6.81-3.7l-7.85-3,.11-.73c5.12-.92,9.07-3.49,11.11-8.28a37,37,0,0,0,2.41-7.95c1.79-10.21.47-20.46.21-30.7-.16-6.27.06-12.52,1.69-18.62,2.49-9.32,9.14-15.21,16.92-20.06,10.27-6.4,21.43-11,32.47-15.81,7.07-3.09,13.93-6.57,19.54-12,9.38-9.13,9.64-21.48.25-30.6-3.41-3.31-7.77-5.63-11.57-8.57-3.11-2.41-6-5.07-9.51-8,1.59-.31,2.31-.54,3-.59a34.77,34.77,0,0,1,27.79,10.1,22.54,22.54,0,0,1,7,14.29c1,10.56-2.69,19.2-10.74,26.05-7.14,6.07-15.44,10.2-23.83,14.16-8.65,4.09-17.47,7.84-25.87,12.36-9,4.82-15.61,12-18.71,22-2.11,6.76-2,13.69-1.38,20.62.34,3.65,1.06,7.26,1.6,10.89a61.05,61.05,0,0,0,1-7.74c1-8.9,3-17.51,7.61-25.32C81.12,125.29,88.71,119.59,99,116.83Zm41.2,24.73a37.11,37.11,0,0,0-1.79,4.58c-3.57,14.06-1.69,27.56,5,40.25,5.77,10.9,14.9,17.65,27.28,19.39,5.61.78,11.2.62,15.91-3.24A14.31,14.31,0,0,0,192,192.47c-13.1,6.08-29.78,1.4-35.65-14.78-1.51-4.16-2.18-8.63-3.14-12.59l-4.73,7.17c-.43-3.93-.7-7.6-1.26-11.22-1.31-8.52.42-16,6.93-22.05,2.1-1.94,4.36-3.73,6.37-5.77a126,126,0,0,0,9.17-9.9c2.26-2.84,3.08-6.4,3.18-10.74-6.57,8.14-15,12.31-24,15.58a123.16,123.16,0,0,0-11.5,4.62c-8.33,4-11.61,10-10.67,19.2a22.12,22.12,0,0,0,3.65,10.23C131.26,153.79,133.49,146.54,140.17,141.56ZM65.68,195.09l.26.53c2.22-.3,4.47-.45,6.64-.93,7.94-1.79,14.25-5.68,17.11-13.79,1.82-5.17,1.15-10.39.11-15.61-1.4-7-2.9-14-4-21-.55-3.35-.39-6.82-.55-10.24l-.58-.3a97.49,97.49,0,0,0-5,8.68c-3.14,7-3.55,14.6-4.14,22.1C74.65,175.46,73.44,186.3,65.68,195.09ZM65.16,79.33c-3.74-3-10.4-2.77-14.62.64-1.29,1-2.45,2.24-3.73,3.29-2.85,2.37-6,3.28-9.68,2.08-2-.66-4-1.25-6-1.82-2.23-.64-4.5-.87-6.52.52-.57.39-.79,1.31-1.17,2,.7.26,1.49.87,2.09.72,3-.76,5.64,0,8.31,1.18a45.51,45.51,0,0,0,6.31,2.41c4.63,1.24,8-.11,10.55-4,.91-1.36,1.46-3.31,3.83-2.12.27.13.82-.28,1.22-.47Zm85.59-57.89a36.41,36.41,0,0,1,.63,5.57,3.34,3.34,0,0,0,1.51,3.13c4.53,3.72,8.92,7.61,13.31,11.5a9.56,9.56,0,0,1,1.43,2.18l.7-.61c-.6-2.47-1.22-4.94-1.79-7.41C164.6,27.44,159,23.16,150.75,21.44ZM47,76.51c0-2.16.11-4.16-.06-6.15,0-.57-1-1.59-1.35-1.51-1.25.3-3.16.7-3.47,1.55C41,73.41,43.42,76.42,47,76.51Zm5.55,10c.22,2-1.4,4.33,1,5.42.82.39,3-.91,3.78-2S55.5,86.84,52.51,86.55Z"/><path class="cls-2" d="M4.43,210a6,6,0,0,1,1.66.88,24.12,24.12,0,0,0,16.83,8.18c1.74.13,2,.63,1,2.05a10.4,10.4,0,0,0-1.49,9c.58,2.13,1.73,3.76,4.12,3.87s3.9-1.33,4.82-3.44c1.18-2.69,1.07-2.53,3.5-1,3.42,2.09,5.35,4.63,4,8.84a27,27,0,0,0-.62,4,7,7,0,0,1-1.47-.85c-1.5-1.63-3.26-2.23-5.28-1.18s-2.61,3-2.36,5.19c.59,5.14,4.42,8.38,10.1,8.3a20.8,20.8,0,0,0,6.2-1.06c4.2-1.41,6.84-4.34,7.21-8.91a11,11,0,0,0-5-10.48c-2.6-1.81-2.47-1.66-.4-3.93a77.9,77.9,0,0,0,5.84-7.43c.78-1.09,1.17-1.2,2.23-.33,3.07,2.48,6.25,4.82,9.68,7.43a8.7,8.7,0,0,0-.88,1.41c-1.07,2.37-2.63,4.68-3,7.16-.82,5.52,2,9.24,7.71,10.73a32.44,32.44,0,0,0,16.77,0c5-1.32,7.89-4.62,8-8.86.22-6.13-4.7-9.28-10.15-6.44-1,.51-1.71,1.48-2.68,2-.55.31-1.67.5-2,.19-2-2.09-3.95-4.32-5.93-6.53,2-2.45,3.91-4.93,6-7.26.26-.29,1.49.06,2.14.39,2.12,1.05,4.06,2.58,6.28,3.27a5,5,0,0,0,6-2.41c1-2.19.11-4.84-2.42-6.39-2.15-1.32-4.51-2.27-6.87-3.43,3.08-2.33,6.36-4.32,9-6.94s4.74-5.92,7-8.77c2.1,2.71,4.13,6,6.78,8.59s6,4.69,9.24,7.19c-.66.32-1.29.59-1.9.9a47.31,47.31,0,0,0-5.92,3.19,4.47,4.47,0,0,0-1.68,5.24c.72,2.25,2.56,2.88,4.6,3a9.44,9.44,0,0,0,7.63-3.3c1.18-1.29,1.91-1.26,3,.17a58.3,58.3,0,0,0,4.7,5.48c.89.92.67,1.45-.11,2.22a61.07,61.07,0,0,0-4.47,4.78c-1,1.3-1.65,1.46-3,.23a10.91,10.91,0,0,0-4.84-2.63c-4.95-1-8.49,2.94-7.62,8.13.77,4.55,3.93,6.84,8,8a31,31,0,0,0,15.67.29c9.3-2.2,12-10.43,6.06-18-.53-.67-1-1.39-1.24-1.72l11-7.77,8.7,10.63-1.85,1.24a11.34,11.34,0,0,0-5.18,12.1c.85,4.17,4.32,7.41,9.21,8.18a22.87,22.87,0,0,0,6.71.07,8.52,8.52,0,0,0,7.45-7.93c.22-2.15-.34-4.1-2.41-5.19s-3.78-.4-5.29,1.18a11.54,11.54,0,0,1-1.57,1c-.29-3.35-.58-6.29-.74-9.24,0-.38.57-.85,1-1.17,1.23-1,2.53-1.9,3.74-2.92,1.53-1.28,2.32-1.1,2.95.93.82,2.69,2.94,4.09,5.16,3.85s3.78-2.22,4.13-5a11.05,11.05,0,0,0-1.75-8,13.11,13.11,0,0,1-.77-1.55A59,59,0,0,0,182.9,218a31,31,0,0,0,6.84-3.4,58.25,58.25,0,0,0,5.57-4.66l.73.62L175.92,256.6c.37.31.7.59,1,.85,2.37,1.83,2.85,3.07,1.82,5.86-1.25,3.39-2.71,6.7-4,10.06-2.55,6.46-4.05,13.05-2.91,20.08.53,3.26-.66,4.43-4,4.43H32.26c-3.25,0-4.6-1.12-4.16-3.87,1.34-8.23-.68-15.84-3.91-23.28-1.11-2.55-2-5.18-3.1-7.75a3.88,3.88,0,0,1,1.51-5.15c1.47-1,1.28-1.81.69-3.14q-9.22-20.87-18.35-41.78c-.33-.74-.6-1.51-.89-2.27Zm163.58,56a481.09,481.09,0,0,0-136,0c1.59,6.17,3.21,12.18,4.68,18.23.38,1.58,1.15,2,2.63,2,5.66,0,11.31.28,17,.28q48.18,0,96.37-.1h10Z"/><path class="cls-2" d="M132,9.83c-.6,2.17-1.12,3.64-1.41,5.16a5.4,5.4,0,0,0,3.91,6.46,3.66,3.66,0,0,0,5.11-3.12c.14-.92.28-1.85.44-2.93a7,7,0,0,1,1.8,8.31c-1.51,3.22-4.23,5.22-7.3,6.78a1.66,1.66,0,0,1-1.41-.07,52.28,52.28,0,0,1-6.79-4.82c-5.07-4.73-4.21-10.68,1.85-14C129.21,11,130.33,10.57,132,9.83Z"/><path class="cls-2" d="M88.53,71.14c-3.29-4.25-7.79-6.81-12.24-9.47-4.75-2.83-5.6-6.09-3-11.78,1.67,6,6.7,8.76,10.57,12.52C86.34,64.8,88.32,67.46,88.53,71.14Z"/><path class="cls-2" d="M46.27,45.6c-1.06,1.68-2.08,3.39-3.2,5-.8,1.19-1.82,1.11-2.89.27a2,2,0,0,1-.38-3.15c1.48-2,3.67-2.37,5.86-2.76Z"/><path class="cls-2" d="M100,282.41c-2.79,0-5.58,0-8.37,0-2.49,0-3.12-.64-3.14-3,0-3.54,0-7.09,0-10.64,0-1.94.93-2.8,2.71-2.82q8.83-.06,17.66,0a2.49,2.49,0,0,1,2.76,2.83c0,3.62,0,7.24,0,10.86a2.47,2.47,0,0,1-2.76,2.81C105.9,282.42,103,282.41,100,282.41Zm0-3.24a37.63,37.63,0,0,0,3.42-3.81,2.75,2.75,0,0,0,.23-2.5A33.37,33.37,0,0,0,99.72,269c0-.05-.37.2-.57.31-4.14,2.28-4.53,5-1.17,8.17C98.52,278,99.13,278.45,100,279.17Z"/><path class="cls-2" d="M62.67,282c-2.86,0-5.73-.06-8.58,0-2.16.06-3-.94-3-3q.07-4.39,0-8.81c0-1.7.58-2.71,2.43-2.78,6.09-.26,12.17-.57,18.26-.84,1.81-.08,2.62.91,2.63,2.63,0,3.31,0,6.63,0,9.94,0,2-1.08,2.85-3,2.84Zm.16-2.76c1.33-1.47,2.54-2.7,3.6-4.05.35-.44.6-1.44.35-1.79a39.8,39.8,0,0,0-3.47-4.1c-.19-.2-.85-.14-1.19,0-4,1.79-4.6,4.94-1.6,7.91C61.16,277.82,61.87,278.37,62.83,279.2Z"/><path class="cls-2" d="M137.33,282c-2.86,0-5.72,0-8.58,0-2.43,0-3.11-.71-3.13-3.09,0-3.23,0-6.47,0-9.7,0-1.77.79-2.69,2.6-2.61,6,.27,12,.55,18,.8,1.86.08,2.67.92,2.6,2.84-.11,3-.08,6,0,9,0,1.92-.8,2.77-2.69,2.75C143.2,281.94,140.27,282,137.33,282Zm-.08-2.31c1.8-2,3-3.21,4.07-4.58a2.13,2.13,0,0,0,.17-2c-1.22-1.46-2.67-3.83-4-3.81s-2.85,2.32-4.1,3.77a2.13,2.13,0,0,0,.11,2C134.56,276.56,135.83,277.94,137.25,279.65Z"/><path class="cls-2" d="M44,271.12c.64.54,1.13.9,1.55,1.32,2.27,2.28,2,4.3-.78,6.08a1.4,1.4,0,0,1-1,.25A3.79,3.79,0,0,1,42,273C42.53,272.34,43.18,271.83,44,271.12Z"/><path class="cls-2" d="M81.14,278c-3.9-3.6-4.74-4,0-7.62C85.71,273.6,85.27,274.57,81.14,278Z"/><path class="cls-2" d="M155.9,278.92c-4.16-3.69-4.21-4.2.08-7.6C160.29,274.43,160.31,275.53,155.9,278.92Z"/><path class="cls-2" d="M118.81,278c-4.22-3.4-4.22-4.39-.1-7.62C123.74,273.71,122.59,274.82,118.81,278Z"/></g></g></g></svg>