<svg id="Layer_1" data-name="Layer 1" xmlns="http://www.w3.org/2000/svg" viewBox="0 0 96.54 60.51"><defs><style>.cls-1{fill:#231f20;}</style></defs><path class="cls-1" d="M26.71,13.28a13.85,13.85,0,0,1,2.77,1.27c.32.18.61.33.86.44a1.52,1.52,0,0,0,.64.18.67.67,0,0,0,.61-.46,4.92,4.92,0,0,0,.35-1.47h1q-.23,2.94-.23,10h-1a14.28,14.28,0,0,0-1.07-4.53,8.75,8.75,0,0,0-2.55-3.49,5.91,5.91,0,0,0-3.85-1.35,5.07,5.07,0,0,0-3.5,1.21,4.21,4.21,0,0,0-1.34,3.28,5.25,5.25,0,0,0,.66,2.68,7.51,7.51,0,0,0,1.85,2.09q1.18.95,3.65,2.57l1.4,1a41.72,41.72,0,0,1,4.09,3,10.71,10.71,0,0,1,2.44,3,7.94,7.94,0,0,1,1,3.93A7.57,7.57,0,0,1,33,41.31a8.76,8.76,0,0,1-3.94,2.88,15.14,15.14,0,0,1-5.51,1,16.06,16.06,0,0,1-4.09-.44,13.05,13.05,0,0,1-3-1.19,3.2,3.2,0,0,0-1.5-.61.66.66,0,0,0-.61.46A5.1,5.1,0,0,0,14,44.85H13q.18-2.77.18-11.87h1a17,17,0,0,0,2.2,8,6.33,6.33,0,0,0,5.8,3,6,6,0,0,0,3.92-1.27,4.49,4.49,0,0,0,1.53-3.65,6.06,6.06,0,0,0-1.58-4.22,25.11,25.11,0,0,0-5-4,50.72,50.72,0,0,1-4.22-3,10.85,10.85,0,0,1-2.6-3,7.89,7.89,0,0,1-1-4,7.38,7.38,0,0,1,1.34-4.47,7.94,7.94,0,0,1,3.59-2.7,13.25,13.25,0,0,1,4.92-.88A12.34,12.34,0,0,1,26.71,13.28Z"/><path class="cls-1" d="M73,14a4.65,4.65,0,0,1,1.47,3.78,6.49,6.49,0,0,1-1.28,4,11.29,11.29,0,0,1-4.09,3.12q-1.93,1-7,2.81a8.29,8.29,0,0,1,3.21,6.6,9.23,9.23,0,0,1-1.76,5.43,12,12,0,0,1-5.08,4,19,19,0,0,1-7.8,1.48q-5.85,0-9.26-2.49a8,8,0,0,1-3.41-6.79A10.12,10.12,0,0,1,40.58,29a13.79,13.79,0,0,1,6.8-4.16,5.65,5.65,0,0,1-2.29-2.11,5.33,5.33,0,0,1-.79-2.81,4.74,4.74,0,0,1,1.3-3.34,8.33,8.33,0,0,1,3.32-2.16A11.64,11.64,0,0,1,53,13.67a6.63,6.63,0,0,1,3.93,1.06,3.26,3.26,0,0,1,1.47,2.77,2.86,2.86,0,0,1-1.14,2.44,4.22,4.22,0,0,1-2.59.86l.08-.79a3,3,0,0,0,2-.64,2.22,2.22,0,0,0,.75-1.78,2.73,2.73,0,0,0-1.21-2.33,5,5,0,0,0-3.05-.88,5.9,5.9,0,0,0-4.45,1.84A6.57,6.57,0,0,0,47,20.93a7,7,0,0,0,1,3.65,16.69,16.69,0,0,1,2.77-.26c1.06,0,1.59.3,1.59.92a.77.77,0,0,1-.4.68,1.84,1.84,0,0,1-1,.24,7.5,7.5,0,0,1-3-1,9.32,9.32,0,0,0-4.86,3.27,8.52,8.52,0,0,0-1.87,5.39,6.78,6.78,0,0,0,3.06,5.93,13.71,13.71,0,0,0,8,2.11,17.67,17.67,0,0,0,6.15-1A10,10,0,0,0,62.77,38a6.44,6.44,0,0,0,1.58-4.28,7.21,7.21,0,0,0-.75-3.15A6.82,6.82,0,0,0,61.4,28L55.82,30a13.08,13.08,0,0,0-3.3,1.76,3.14,3.14,0,0,0-1.32,2.59,2.54,2.54,0,0,0,1.08,2.16,4.35,4.35,0,0,0,2.66.79,4.55,4.55,0,0,0,2.81-.83,6.89,6.89,0,0,0,1.68-1.76l.57.39A5.74,5.74,0,0,1,54.76,38a5.49,5.49,0,0,1-3.38-1A3.82,3.82,0,0,1,50,33.73a5.49,5.49,0,0,1,1.82-4.23,17,17,0,0,1,5.47-3l2.16-.79,5-1.78a44.49,44.49,0,0,0,4.28-1.78,12.28,12.28,0,0,0,3.35-2.18,3.68,3.68,0,0,0,1.18-2.7A3.44,3.44,0,0,0,72,14.53a4.59,4.59,0,0,0-3.1-1.08c-.76,0-1.23.14-1.41.4a1.9,1.9,0,0,1,.68.7,2,2,0,0,1,.25,1,2.26,2.26,0,0,1-.88,1.76,3,3,0,0,1-2,.75,2.07,2.07,0,0,1-1.43-.49,1.73,1.73,0,0,1-.55-1.36,2.42,2.42,0,0,1,.62-1.63,4.69,4.69,0,0,1,1.58-1.14,8,8,0,0,1,3.21-.62A6.12,6.12,0,0,1,73,14Z"/><path class="cls-1" d="M71.16,51.93a6,6,0,0,0,3.06-1.08,5.66,5.66,0,0,0,1.85-3,20.39,20.39,0,0,0,.64-5.69V18.07a8.64,8.64,0,0,0-.25-2.42,1.55,1.55,0,0,0-.92-1,7.93,7.93,0,0,0-2.13-.35v-.88c1.46.09,3.68.13,6.64.13s5.33,0,6.94-.13v.88a7.81,7.81,0,0,0-2.15.35,1.55,1.55,0,0,0-.9,1,8.73,8.73,0,0,0-.24,2.42V36.85A35.61,35.61,0,0,1,83,45.64,9.13,9.13,0,0,1,79,50.83a14,14,0,0,1-7.85,2Z"/></svg>